<svg width="250" height="700" viewBox="0 0 250 700" fill="none" xmlns="http://www.w3.org/2000/svg">
<g opacity="0.1">
<path d="M105.014 49.3269L107.055 49.1569V47.1087C107.055 39.5978 107.061 32.3335 108.209 25.7716C109.351 19.2462 111.591 13.6283 115.906 9.31366L116.018 9.2018L116.112 9.07525C119.502 4.55604 127.334 2.1962 135.405 3.32606C143.343 4.43743 150.52 8.79613 152.913 16.4831C153.562 19.1035 154.559 24.7369 155.399 30.7849C156.246 36.8846 156.905 43.2018 156.905 47.1087V49.3346H159.131C160.623 49.3346 161.423 49.806 161.918 50.3653C162.475 50.9952 162.882 52.0112 163.025 53.4392C163.309 56.282 162.453 59.8611 161.272 62.2837C160.039 64.1264 159.785 64.3514 159.764 64.3696L159.763 64.3708L159.755 64.3786C159.711 64.4223 159.587 64.5453 159.46 64.7119C159.331 64.8813 159.233 65.0464 159.158 65.1819C159.078 65.3254 158.977 65.522 158.841 65.7901C158.608 65.894 158.437 65.9608 158.311 66.0096C158.23 66.0407 158.033 66.1134 157.884 66.1806C157.702 66.2622 157.367 66.4269 157.048 66.7465C156.728 67.0661 156.564 67.4003 156.482 67.5823C156.425 67.7083 156.365 67.8671 156.329 67.9626C156.322 67.9806 156.316 67.9964 156.311 68.0093C156.231 68.2178 156.102 68.5433 155.839 69.0773C154.304 71.4447 152.902 75.3993 151.9 78.9088C151.376 80.7403 150.938 82.5362 150.628 84.0624C150.33 85.5322 150.117 86.9126 150.117 87.8353V88.0557L150.16 88.2718C150.908 92.0111 152.74 95.9914 154.846 99.5015C156.96 103.025 159.444 106.23 161.63 108.415L161.708 108.493L161.794 108.564C165.592 111.671 169.892 114.766 174.295 117.92L174.87 118.332C179.11 121.369 183.444 124.473 187.619 127.764C196.368 134.663 204.199 142.222 208.727 151.278C209.7 153.224 210.637 154.94 211.555 156.622C213.328 159.868 215.032 162.989 216.796 167.4L216.831 167.486L216.872 167.569C217.613 169.05 218.356 170.165 219.03 171.175L219.047 171.202C219.726 172.22 220.335 173.136 220.945 174.357L221.007 174.48L221.084 174.596C222.474 176.681 223.058 177.565 223.49 178.429C223.913 179.275 224.201 180.124 224.897 182.21C226.254 186.281 226.472 188.734 226.726 191.579C226.837 192.832 226.956 194.16 227.181 195.736C227.901 200.78 229.689 207.439 235.828 220.408C238.507 227.12 238.212 228.504 237.943 229.399C237.875 229.626 237.809 229.806 237.723 230.044C237.669 230.194 237.606 230.366 237.529 230.587C237.352 231.099 237.162 231.708 237.018 232.466C236.734 233.964 236.661 235.869 237.002 238.671C237.024 239.972 237.342 241.43 237.772 242.872C238.228 244.399 238.855 246.049 239.551 247.702C240.91 250.93 242.593 254.307 243.931 256.982C246.594 266.326 247.522 271.129 247.522 275.856C247.522 279.526 246.973 283.156 246.113 288.844C245.832 290.704 245.518 292.783 245.178 295.156C243.484 303.296 242.619 308.807 242.29 312.683C241.961 316.564 242.156 318.955 242.691 320.774C242.96 321.69 243.297 322.395 243.609 322.993C243.708 323.183 243.797 323.348 243.878 323.5C244.069 323.856 244.221 324.139 244.379 324.498C244.757 325.361 245.146 326.654 245.146 329.48C245.146 330.718 244.862 331.443 244.421 332.214C244.241 332.53 244.057 332.815 243.833 333.164C243.727 333.328 243.613 333.506 243.485 333.708C243.113 334.298 242.698 334.989 242.303 335.829C240.685 339.267 239.711 344.512 241.09 355.549C242.396 365.991 240.435 378.537 236.956 388.477C235.218 393.442 233.144 397.633 231.007 400.534C228.769 403.573 226.89 404.634 225.651 404.634C224.385 404.634 223.188 404.01 221.757 402.897C221.3 402.542 220.902 402.206 220.48 401.85C220.209 401.621 219.928 401.384 219.615 401.128C219.247 400.827 218.847 400.511 218.422 400.213C218.58 398.103 219.119 395.727 219.82 393.201C220.143 392.039 220.516 390.798 220.889 389.554C221.433 387.744 221.979 385.925 222.38 384.321L224.329 376.525L218.647 382.208C217.963 382.892 217.087 383.766 216.145 384.571C215.172 385.402 214.283 386.022 213.595 386.309C213.465 386.363 213.365 386.397 213.29 386.419C213.166 386.132 212.944 385.397 212.944 383.782C212.944 373.301 213.368 366.637 214.002 362.275C214.637 357.916 215.461 356.021 216.15 354.955C216.503 354.41 216.863 354.013 217.323 353.516L217.379 353.455C217.82 352.979 218.379 352.376 218.893 351.572C220.002 349.837 220.729 347.468 221.081 343.24L221.178 342.086L220.288 341.345L212.143 334.557L209.984 332.758L208.727 335.272C208.1 336.526 207.47 337.552 206.833 338.538C206.679 338.777 206.52 339.02 206.358 339.266C205.872 340.009 205.364 340.786 204.892 341.594C203.566 343.868 202.457 346.5 201.734 350.834L201.716 350.947L201.709 351.062L198.993 394.503L198.989 394.573V394.642C198.989 415.1 200.353 432.881 204.449 453.387C209.301 488.591 208.695 505.162 207.535 536.834C207.406 540.345 207.271 544.041 207.136 547.969L207.132 548.066L207.137 548.162L208.492 573.897C208.49 576.802 208.363 580.307 208.225 584.095C208.139 586.455 208.05 588.925 207.984 591.429C207.815 597.838 207.806 604.426 208.504 609.378C208.858 613.905 209.568 616.667 210.329 618.557C210.712 619.509 211.091 620.196 211.384 620.712C211.715 621.293 211.79 621.428 211.83 621.548C211.831 621.551 211.832 621.553 211.832 621.554C211.832 621.57 211.829 621.611 211.813 621.687C211.761 621.939 211.607 622.395 211.195 623.25C210.419 624.858 209.001 627.34 206.56 631.61L206.139 632.347C204.107 635.065 202.957 636.946 202.178 639.089C201.545 640.828 201.176 642.712 200.687 645.204C200.594 645.68 200.496 646.178 200.392 646.701C198.69 654.872 198.051 659.995 198.12 663.544C198.192 667.259 199.041 669.278 200.137 671.171C200.315 671.479 200.492 671.773 200.668 672.063C201.477 673.406 202.246 674.683 202.918 676.98C203.687 679.61 204.321 683.613 204.409 690.319C202.773 690.892 201.618 691.492 200.695 692.128C200.103 692.536 199.645 692.932 199.267 693.27C199.185 693.343 199.109 693.411 199.039 693.475C198.765 693.721 198.562 693.905 198.321 694.092C197.354 694.844 195.575 695.833 187.544 696.508C185.231 696.516 182.523 696.827 179.914 697.127C178.588 697.28 177.287 697.429 176.077 697.534C172.154 697.875 169.008 697.789 166.914 696.743L166.773 696.672L166.623 696.622C161.87 695.038 160.313 690.91 159.646 684.912C159.447 683.116 159.344 681.37 159.238 679.572C159.163 678.299 159.087 677 158.973 675.64C158.716 672.547 158.272 669.358 157.104 666.633L157.078 666.573L157.049 666.515L155.722 663.86C154.84 661.771 154.114 658.401 153.441 653.942C152.878 650.211 152.374 645.888 151.823 641.173C151.717 640.263 151.61 639.339 151.499 638.402C150.144 626.879 148.43 613.464 144.976 601.719L144.959 601.663L144.939 601.607C144.374 600.005 143.857 598.555 143.387 597.234C142.146 593.751 141.225 591.166 140.576 589.069C139.69 586.204 139.396 584.499 139.464 582.929C139.534 581.331 139.983 579.692 140.936 576.917C141.169 576.239 141.43 575.499 141.716 574.686C142.581 572.231 143.681 569.109 144.965 565L144.973 564.974L144.981 564.948C146.432 559.868 146.427 556.204 146.252 552.521C146.23 552.059 146.205 551.598 146.18 551.136C146.013 547.977 145.84 544.722 146.404 540.195C148.962 522.274 146.769 513.626 143.228 499.659C142.923 498.455 142.608 497.211 142.285 495.919L142.276 495.883L142.265 495.847C140.968 491.305 140.646 488.089 140.482 484.808C140.447 484.117 140.42 483.415 140.391 482.691C140.284 479.961 140.165 476.927 139.614 473.065L139.605 473.004L139.593 472.944C137.518 462.568 133.724 452.911 130.012 443.464L129.979 443.379C126.234 433.847 122.578 424.525 120.587 414.569L116.178 415.005V415.013V415.021V415.029V415.037V415.045V415.052V415.06V415.068V415.076V415.083V415.091V415.099V415.106V415.114V415.121V415.129V415.136V415.144V415.151V415.158V415.166V415.173V415.18V415.187V415.195V415.202V415.209V415.216V415.223V415.23V415.237V415.244V415.251V415.258V415.265V415.272V415.279V415.286V415.293V415.299V415.306V415.313V415.319V415.326V415.333V415.339V415.346V415.352V415.359V415.365V415.372V415.378V415.385V415.391V415.397V415.404V415.41V415.416V415.423V415.429V415.435V415.441V415.447V415.453V415.459V415.466V415.472V415.478V415.484V415.489V415.495V415.501V415.507V415.513V415.519V415.525V415.53V415.536V415.542V415.547V415.553V415.559V415.564V415.57V415.575V415.581V415.586V415.592V415.597V415.603V415.608V415.613V415.619V415.624V415.629V415.635V415.64V415.645V415.65V415.655V415.661V415.666V415.671V415.676V415.681V415.686V415.689L113.837 419.201L113.612 419.539L113.52 419.935C111.876 427.059 110.242 434.576 108.612 442.076C106.177 453.278 103.751 464.442 101.312 474.198L101.299 474.249L101.289 474.301C100.615 477.668 99.9413 480.701 99.262 483.758L99.2601 483.766C98.6106 486.689 97.9562 489.634 97.3013 492.882C95.9134 495.021 94.2676 498.03 92.9351 501.195C91.5853 504.4 90.4518 508.009 90.3878 511.117C89.6639 514.275 90.1011 517.417 90.9857 520.403C91.8473 523.31 93.1931 526.252 94.477 529.058L94.6591 529.456C97.4444 535.549 99.7507 540.951 98.5832 546.205L98.5302 546.444V546.688C98.5302 549.838 97.8966 553.368 97.212 556.962C97.1693 557.187 97.1262 557.412 97.083 557.637C96.4669 560.859 95.8308 564.184 95.8154 566.949C95.158 574.5 98.0224 579.615 100.542 584.116C100.759 584.503 100.974 584.886 101.183 585.266C102.526 587.699 103.669 589.977 104.273 592.566C104.861 595.081 104.96 597.988 104.062 601.664C103.815 602.282 103.57 602.892 103.328 603.496C98.2888 616.062 94.428 625.689 93.1077 641.532L93.1 641.624V641.716C93.1 643.753 93.0999 648.127 92.932 652.491C92.848 654.675 92.7229 656.831 92.5384 658.677C92.3485 660.575 92.111 661.971 91.8567 662.733C91.7436 663.073 91.2642 663.768 89.9361 664.734C88.6763 665.65 86.9219 666.618 84.7528 667.605C80.424 669.575 74.7336 671.49 68.7592 673.173C62.7987 674.852 56.6245 676.28 51.3601 677.287C46.0393 678.305 41.8108 678.86 39.6663 678.86C34.889 678.86 31.6485 678.859 29.2159 678.735C26.8026 678.612 25.333 678.373 24.0796 677.956C22.8186 677.535 21.6485 676.893 19.8504 675.764C19.3393 675.443 18.7775 675.083 18.1542 674.683C17.0244 673.959 15.6924 673.105 14.0943 672.121C14.9757 670.265 15.5708 668.516 16.1139 666.871C16.1621 666.725 16.2098 666.58 16.2572 666.436C16.9331 664.383 17.5454 662.524 18.564 660.559C20.6899 656.459 24.7455 651.631 35.4159 644.962L37.0335 643.951L36.2821 642.197C34.5394 638.131 35.0603 632.663 36.0924 626.471C36.2469 625.543 36.413 624.596 36.5802 623.644C36.9482 621.546 37.3214 619.419 37.5882 617.403C37.9783 614.456 38.1801 611.5 37.7972 608.82L37.7688 608.622L37.7054 608.431C36.293 604.194 29.4405 589.136 26.7242 583.704L26.6966 583.649L26.6659 583.595C25.42 581.415 24.8774 579.686 24.744 578.219C24.6125 576.772 24.8653 575.43 25.4424 573.987C26.0366 572.501 26.9525 570.958 28.1384 569.095C28.3857 568.706 28.6444 568.304 28.9118 567.888C29.8968 566.358 31.001 564.642 32.0961 562.725L32.1268 562.672L32.1544 562.616C35.1055 556.714 35.4635 551.514 34.923 546.289C34.6666 543.811 34.2051 541.304 33.7379 538.766L33.689 538.5C33.2006 535.846 32.7053 533.118 32.3758 530.151L32.3719 530.117L32.367 530.082C30.3321 515.838 29.3317 507.13 29.1648 498.283C28.9977 489.427 29.6645 480.376 31.0227 465.436L31.0247 465.415L31.0262 465.393C31.5578 457.95 32.7198 449.673 33.9429 440.96C34.266 438.659 34.5933 436.327 34.9144 433.972C36.4428 422.764 37.8196 411.096 37.8196 400.072V397.846H35.5937C32.9803 397.846 32.3123 397.495 31.9279 397.174C31.672 396.961 31.391 396.628 30.955 395.974C30.7588 395.68 30.553 395.355 30.3086 394.969L30.2355 394.853C29.9974 394.478 29.7309 394.059 29.43 393.603L18.6547 366.664L18.6203 366.578L18.5789 366.496C14.6313 358.6 13.3406 354.756 12.026 345.611C12.02 340.331 11.7114 337.065 10.1957 334.467C9.42444 333.145 8.41146 332.109 7.24522 331.103C6.51281 330.471 5.63307 329.781 4.66021 329.017C4.57842 328.953 4.49597 328.888 4.41289 328.823C8.02649 320.748 9.05281 313.992 8.75702 307.738C8.49354 302.168 7.16992 297.023 5.86165 291.938C5.62924 291.034 5.39731 290.133 5.17189 289.231C3.66191 283.191 2.36665 276.909 2.73282 269.26C3.0985 261.621 5.12979 252.491 10.451 240.842C11.8072 238.127 12.6394 236.212 13.0777 234.751C13.539 233.213 13.6102 232.029 13.3172 230.857C13.1461 230.172 12.9511 229.706 12.7653 229.261C12.3752 228.328 12.0261 227.492 12.0261 224.948V224.674L11.9597 224.408C11.7895 223.728 11.9211 222.402 12.6458 220.31C13.3348 218.322 14.421 216.018 15.6803 213.583C16.5621 211.878 17.4986 210.166 18.4173 208.486C18.8117 207.765 19.2028 207.05 19.5849 206.344C20.8119 204.077 21.9577 201.884 22.6925 200.068C24.155 197.122 24.5563 195.161 24.7455 192.891C24.7924 192.328 24.8263 191.766 24.8618 191.176C24.9646 189.471 25.082 187.524 25.5713 184.587L25.5756 184.562L25.5793 184.536C26.1995 180.195 28.0752 176.07 30.4087 171.903C31.3264 170.264 32.2922 168.657 33.269 167.032C33.5347 166.59 33.8012 166.146 34.0678 165.701C35.3016 163.637 36.5264 161.54 37.5846 159.423C41.6049 151.383 45.551 144.831 52.1007 138.281C57.7261 132.656 63.3195 128.972 69.9628 124.596C71.1032 123.845 72.2746 123.074 73.4823 122.269L73.5337 122.234L73.5831 122.197C76.4746 120.029 85.4227 111.405 93.553 102.767C97.6436 98.4204 101.594 93.9997 104.535 90.3026C106.001 88.4586 107.251 86.7514 108.146 85.2978C108.592 84.5719 108.977 83.8671 109.256 83.2101C109.518 82.5938 109.77 81.8319 109.77 81.0475C109.77 79.5274 109.397 77.8762 108.881 76.2455C108.359 74.5935 107.645 72.8253 106.871 71.0407C106.316 69.7608 105.737 68.4849 105.161 67.2168C104.089 64.8532 103.028 62.5166 102.157 60.2312C100.797 56.6591 100.194 53.9004 100.562 52.0917C100.723 51.3007 101.057 50.7577 101.604 50.3478C102.198 49.9019 103.232 49.4754 105.014 49.3269ZM213.102 386.449C213.104 386.447 213.122 386.444 213.15 386.449C213.114 386.454 213.1 386.451 213.102 386.449ZM59.5333 208.835L55.1717 208.055L42.9681 251.445L34.8395 275.831L34.6708 276.337L34.7499 276.865L38.8226 304.016L38.8473 304.181L38.8964 304.341L44.3266 321.989L48.6788 321.408L50.031 280.842L56.7907 242.988L56.8096 242.881L56.8182 242.774L59.5333 208.835Z" fill="#141414" stroke="white" stroke-width="4.45185"/>
</g>
</svg>
